<svg id="图层_1" data-name="图层 1" xmlns="http://www.w3.org/2000/svg" viewBox="0 0 1080 1080"><defs><style>.cls-1,.cls-2{fill:#0a0a0a;}.cls-2{font-size:47.85px;font-family:Lato-Regular, Lato;letter-spacing:0.04em;}.cls-3{letter-spacing:0.01em;}.cls-4{letter-spacing:0.02em;}.cls-5{letter-spacing:0.01em;}</style></defs><title>逍遥有声书</title><path class="cls-1" d="M67.42,506.7c3.85,0,7.34-.09,10.83,0,4.55.15,7.27,2.65,7.31,7.15.14,17.85.12,35.7,0,53.56,0,4.6-3,7-7.27,7.36a73.2,73.2,0,0,1-11.47,0c-4.27-.32-7-2.75-7.7-7.31-1.84-.11-3.58-.13-5.3-.33a15,15,0,0,1-13.44-14.92c-.15-7-.07-14,0-21,.05-10.81,4.91-16,15.77-16.94.93-.08,1.84-.25,2.73-.37C57.54,451.12,115,412.49,163.14,413.39c51.61,1,101.93,41.18,101.55,100.54,1.66.17,3.36.31,5.05.51a14.86,14.86,0,0,1,13.6,14.71c.17,6.21-.39,12.47.15,18.64,1,11.19-5.32,20-18.31,19.68-4,6.94-15.78,10.51-22.85,6.24a10.75,10.75,0,0,1-4.42-7.65c-.4-16.89-.31-33.8-.15-50.7.06-5.94,3-8.53,9.05-8.72,3.14-.1,6.28,0,9.42,0-.57-42.19-39.66-86.62-96-85.63S67.88,467.05,67.42,506.7Zm-.11,7.76v52.69H77.89V514.46Zm178.34,0v52.61h10.78V514.45Z"/><path class="cls-1" d="M158,589.53c-7.57-1.8-14.67-4.16-21.94-5.06-9.67-1.19-19,1-27.66,5.65-7.66,4.1-13,1-13-7.64-.08-26.47,0-52.94-.07-79.41,0-4.95,2-7.8,6.55-9.87,17.23-7.88,34.74-10.17,52.83-3.46,1.37.51,3.17,2.42,3.17,3.68C158.05,525.62,158,557.82,158,589.53Z"/><path class="cls-1" d="M165.7,590v-59c0-12.11.09-24.22-.06-36.33,0-2.84.78-4.19,3.6-5.06,18.47-5.71,36.35-5.22,53.66,4.16,3.65,2,5.36,4.58,5.35,8.72-.07,26.93,0,53.87-.07,80.8,0,7-5.31,10.92-11,7.75-16.57-9.18-33.11-8.71-49.92-1A6.11,6.11,0,0,1,165.7,590Z"/><path class="cls-1" d="M637.41,481.49c-7.28,9-13.88,17.39-20.67,25.58-2.34,2.82-5.44,3.45-8.42.85s-3-5.47-.76-8.53c.56-.77,1.22-1.47,1.77-2.25,8.21-11.91,16.89-23.52,24.43-35.84,4.76-7.77,7.81-16.59,12.09-26H623.91c-2.39,0-4.79.08-7.17-.09-3.68-.26-6.09-2.16-6-6s2.54-5.75,6.25-5.81c7.33-.11,14.66-.05,22-.07a34,34,0,0,1,5.25.05c4.18.65,6.2-1.14,6.68-5.19a31.23,31.23,0,0,1,1-4.66c1.16-4.24,4.11-6.3,7.67-5.13,3.8,1.26,5.09,4.06,4.16,7.91-.51,2.13-1,4.25-1.72,7H717.6a26,26,0,0,1,4.76.21c3.23.62,5.57,2.85,4.85,6-.49,2.12-2.85,4.13-4.85,5.45-1.26.83-3.41.37-5.16.37-18.18,0-36.36.08-54.53-.06-3.17,0-4.94.74-5.89,4-1.34,4.53-3.22,8.9-5.07,13.9h9.46c14,0,28.06,0,42.1,0,5.78,0,7.89,2.06,7.9,7.69q.06,49.75,0,99.5c0,4.87-2.3,7.61-6,7.53s-6.08-2.81-6.13-7.66c-.11-12,0-23.92,0-35.88v-5.45H649.73c-.1,1.69-.29,3.37-.29,5,0,11.32,0,22.65,0,34,0,1.43,0,2.87-.14,4.3-.34,3.56-2.45,5.61-5.93,5.61s-5.57-2.07-5.86-5.65c-.12-1.43-.07-2.87-.07-4.3q0-35.64,0-71.28Zm61.38,10h-49v14.64h49Zm-49.14-12.75h49V465.71h-49Z"/><path class="cls-1" d="M949.27,444.9H929.59c-1.75,0-3.51,0-5.26,0-3.69-.14-6.24-1.94-6.29-5.75-.06-4,2.41-6.05,6.42-6.06,8.12,0,16.24,0,25.12,0,0-5.9-.08-11.57,0-17.23.06-3.44,1.9-6.24,5.3-6.24,2,0,4.47,1.85,6,3.52,1,1.05.78,3.32.81,5,.1,4.76,0,9.52,0,14.91h27.47c8.54,0,9.84,1.33,9.85,10q0,18.18.1,36.35a9.29,9.29,0,0,0,.49,1.65c3.83,0,7.91-.05,12,0,6.53.09,8.64,2.18,8.65,8.54q0,26.31,0,52.61c0,5.39-2.36,8.45-6.32,8.33-3.66-.12-5.86-3.16-5.87-8.36q0-21.53,0-43.05v-5.43H961.77v5.79q0,29.65,0,59.31c0,1.59.37,3.58-.43,4.66-1.46,2-3.8,4.93-5.5,4.76-2.16-.22-4.36-2.9-6-5-.79-1-.3-3.09-.3-4.68q0-29.65,0-59.31v-5.86H936.45c-7,0-14,0-21.05,0-5.86,0-9-2.24-8.93-6.24s3.2-6.08,9.15-6.1c9.41,0,18.82,0,28.23,0h5.42Zm37.27,36V445.28h-24.4v35.59Z"/><path class="cls-1" d="M390.65,445.65c0-9.25,0-17.68,0-26.12,0-6.06,2-9.19,5.93-9.21,4.16,0,6.24,3.12,6.27,9.47q.06,12.19.14,24.4c0,.28.22.56.6,1.46,6.38,0,13,0,19.67,0,8,0,9.86,1.86,9.86,9.85q0,41.63,0,83.25c0,.79,0,1.59,0,2.39-.24,4.72-2.67,7.63-6.38,7.29-4.32-.39-5.91-3.27-5.91-7.28,0-9.38,0-18.76,0-28.44H372.4v7.76c0,7,0,14,0,21,0,3.88-1.84,6.48-5.81,6.91-3.56.38-6.12-2.45-6.37-6.82-.14-2.39,0-4.79,0-7.18q0-39.47,0-78.94c0-8,1.87-9.82,9.89-9.84C376.74,445.64,383.4,445.65,390.65,445.65Zm-18,54.32h47.78v-14.9H372.68Zm-.12-27.19c15.47,0,30.38,0,45.3-.1,1,0,2.73-1.34,2.79-2.15.28-4,.13-8.13.13-12.11H372.56Z"/><path class="cls-1" d="M550.13,476.83v14.59h17.7c4.46,0,8.92,0,13.39,0,5.73,0,8.52,2.07,8.48,6.09,0,3.85-2.65,5.73-8.23,5.76-8.61,0-17.22,0-25.83,0h-5.43v30.19h17.66c0-4.51,0-8.9,0-13.29a30,30,0,0,1,.4-5.7c.66-3.14,2.81-5.69,6-4.73,2.24.68,5.33,3.34,5.47,5.31a229.92,229.92,0,0,1,.14,25.32c-.15,3.74-3.19,5.45-6.72,5.46-19.46.08-38.91.11-58.36,0-4.71,0-7-2.43-7.14-7.21q-.28-11,0-22c.12-4.37,2.88-7.19,6.37-6.83,4.28.45,5.85,3.22,5.78,7.32-.09,5.25,0,10.5,0,16.17h17.81v-30H526.32c-6.85,0-13.71.05-20.57,0-5.05-.05-7.76-2.17-7.75-5.81s2.88-6,7.7-6c10.5-.07,21,0,31.84,0V476.85c-7.76,0-15.36-.05-22.95,0-3.48,0-6.85-.08-8.61-3.73s.59-6,2.56-8.57c1.38-1.76,2.74-3.52,4.06-5.32,2.29-3.13,4.91-5.86,9.15-4.05,4,1.72,4,5.27,2.76,9.41h21.22q13.63,0,27.27,0c4,0,7,1.38,7.34,5.79.32,3.83-2.46,6.31-7.23,6.38C565.63,476.91,558.15,476.83,550.13,476.83Z"/><path class="cls-1" d="M817.2,463.84c12.75,0,25.5,0,38.24,0,6.74,0,8.81,2.08,8.86,8.89q.09,12,0,23.9c0,6.81-2.07,8.87-8.86,8.89-23.27,0-46.53.08-69.79-.06-3.71,0-5.12.88-5.73,4.84-2.78,18-7.32,35.52-16.81,51.38-.49.81-.91,1.68-1.47,2.45-2.17,3-5.15,4-8.33,2.16s-3.71-4.89-2-8.28c2.93-5.82,6.28-11.49,8.57-17.55a156.87,156.87,0,0,0,9.91-55.64c0-4.14,0-8.28,0-12.42.09-6.44,2.21-8.55,8.67-8.56C791.39,463.82,804.3,463.84,817.2,463.84Zm-35,29.11H811V476.41H782.17Zm41.44-16.66v16.55h28.22V476.29Z"/><path class="cls-1" d="M334.82,462.64c-4.91,0-9.65.05-14.4,0-5.7-.07-8.48-2.19-8.36-6.28.11-3.91,2.79-5.87,8.2-5.9q9.57-.06,19.14,0c6.45.05,8.61,2.23,8.13,8.81-2.23,30.68-5,61.3-13,91.17-.41,1.53-.65,3.1-1.1,5.28H436c1.43,0,2.87-.06,4.3,0,4.81.31,7.42,2.68,7,6.59-.42,4.44-3.41,5.61-7.41,5.61q-45.69-.06-91.38,0c-7,0-14,0-21.05,0s-9.21-3.22-7.55-10.26c2.66-11.31,6.1-22.5,7.85-33.95,3-19.52,4.89-39.19,7.24-58.8A13.58,13.58,0,0,0,334.82,462.64Z"/><path class="cls-1" d="M481,460.74c-5.42,0-10.34.06-15.25,0s-7.71-2.28-7.85-5.89c-.15-3.82,2.8-6.24,7.89-6.29,6.86-.06,13.72-.1,20.57,0,5.16.09,8,2.91,7.38,7.83-3,25.13-6,50.27-9.41,75.36-1,7.21-3.15,14.25-4.94,22.06h6q48.81,0,97.62,0c2,0,4.59-.31,6,.73,1.91,1.38,4.21,4.06,4,6s-3,3.83-5,5.32c-.83.62-2.48.16-3.75.16H474.23c-8.12,0-10.39-2.82-8.14-10.72C474.84,524.61,478.68,493.2,481,460.74Z"/><path class="cls-1" d="M810.62,443.42V433H767.77a32.27,32.27,0,0,1-4.29-.11c-3.53-.47-6.22-2.24-6.17-6.05.05-4,2.7-5.95,6.6-6,5.73-.09,11.47,0,17.2,0h29.3c.92-5-.93-12,6.38-12.11s5.83,6.82,6.54,12.11H831c12.59,0,25.18,0,37.77,0,4.78,0,7.75,2.4,7.77,6s-3.1,6.14-7.72,6.17c-13.38.1-26.77,0-40.15,0h-5.38v10.45h21.61c4.3,0,8.61,0,12.91,0,3.87,0,6.06,2.22,6.05,5.92s-2.35,5.73-6.18,5.75l-1.91,0H776.85c-4.72-.11-7.2-2.09-7.21-5.76s2.54-5.9,7.07-5.93c9.4-.06,18.8,0,28.2,0Z"/><path class="cls-1" d="M543.26,413.75c11,0,22,0,33,0,5.1,0,7.64,2,7.75,5.77s-2.51,6.16-7.39,6.18q-33.23.11-66.44,0c-5.53,0-9.13-4.27-6.72-8a9.74,9.74,0,0,1,6.84-3.78C521.26,413.53,532.26,413.76,543.26,413.75Z"/><path class="cls-1" d="M476.69,425c0-3.17-.12-6.35,0-9.52.18-3.68,2.19-6.09,5.94-6.09,3.53,0,5.65,2.28,5.74,5.75.18,6.65.17,13.32-.05,20-.11,3.48-2.21,5.61-5.83,5.59s-5.51-2.28-5.74-5.71-.05-6.66-.05-10Z"/><path class="cls-1" d="M330.91,426.64c0-3.18-.11-6.35,0-9.52.15-3.51,2.08-5.77,5.61-5.86a5.47,5.47,0,0,1,6,5.52c.27,6.81.25,13.64-.07,20.45-.15,3.4-2.44,5.53-6.05,5.36s-5.37-2.49-5.49-6S330.91,430,330.91,426.64Z"/><path class="cls-1" d="M564.42,455.19c-5.36-.11-8.18-4.86-5.59-8.92a86.93,86.93,0,0,1,10.64-14c1.43-1.48,5.8-2,7.41-.9s2.94,5.62,2,7.19c-3.34,5.51-7.64,10.45-11.75,15.46C566.44,454.89,564.89,455,564.42,455.19Z"/><path class="cls-1" d="M360.37,421.17c2.13-2.27,3.46-4.82,5.41-5.43,1.76-.56,5.19.31,6.13,1.73a80.33,80.33,0,0,1,8,15.1c.66,1.7-.64,5.15-2.18,6.44-1.31,1.11-5.52,1.17-6.27.13C367.55,433.67,364.3,427.71,360.37,421.17Z"/><path class="cls-1" d="M432.78,420.89c-3.85,6.53-7.13,12.65-11.09,18.3-.7,1-4.81.83-6.28-.25s-2.84-4.47-2.21-6a88.22,88.22,0,0,1,8.2-15.56c.92-1.39,4.34-2.15,6.18-1.63S430.7,418.71,432.78,420.89Z"/><path class="cls-1" d="M998.23,426.4c-2.23,0-4.46.1-6.68,0-3.72-.21-6-2.25-6-6,0-3.5,2.11-5.69,5.65-5.82,4.76-.17,9.54-.21,14.28.07,3.56.2,5.42,2.57,5.3,6.09-.11,3.32-2.08,5.29-5.38,5.57-2.36.2-4.76,0-7.14,0Z"/><path class="cls-1" d="M539.38,429.13c.74.36,2.52.7,3.45,1.78,2.81,3.23,5.76,6.5,7.67,10.25.84,1.65,0,5.38-1.38,6.59s-5.55,1.65-6.74.54a46.34,46.34,0,0,1-9-11.44C531.42,433.37,534.66,429.28,539.38,429.13Z"/><path class="cls-1" d="M515.11,431.71c.6.25,2.29.46,3.08,1.41,2.83,3.4,5.83,6.81,7.77,10.72.77,1.57-.39,5.25-1.89,6.47s-5.47,1.45-6.62.33A46.81,46.81,0,0,1,509,439.32C507.15,435.79,510.27,431.88,515.11,431.71Z"/><text class="cls-2" transform="translate(379.88 633.67)">CAREFREE<tspan class="cls-3" x="249.6" y="0"> </tspan><tspan class="cls-4" x="262.16" y="0">A</tspan><tspan x="295.68" y="0">UD</tspan><tspan class="cls-5" x="371.09" y="0">L</tspan><tspan x="395.97" y="0">OBOOK</tspan></text><rect class="cls-1" x="329.5" y="614.79" width="35.09" height="3.65"/><rect class="cls-1" x="967.78" y="614.79" width="35.09" height="3.65"/></svg>